<svg width="22" height="22" viewBox="0 0 22 22" fill="none" xmlns="http://www.w3.org/2000/svg">
<path fill-rule="evenodd" clip-rule="evenodd" d="M8.15835 1.83337H13.8142C16.2984 1.83337 18.3059 2.81421 18.3334 5.30754V19.2225C18.3334 19.3784 18.2967 19.5342 18.2234 19.6717C18.1042 19.8917 17.9025 20.0567 17.655 20.13C17.4167 20.2034 17.1509 20.1667 16.9309 20.0384L10.9909 17.0684L5.04169 20.0384C4.9051 20.1108 4.74835 20.1575 4.59252 20.1575C4.07919 20.1575 3.66669 19.7359 3.66669 19.2225V5.30754C3.66669 2.81421 5.68335 1.83337 8.15835 1.83337ZM7.53502 8.81837H14.4375C14.8317 8.81837 15.1525 8.49662 15.1525 8.09421C15.1525 7.69087 14.8317 7.37004 14.4375 7.37004H7.53502C7.14085 7.37004 6.82002 7.69087 6.82002 8.09421C6.82002 8.49662 7.14085 8.81837 7.53502 8.81837Z" fill="#D1D5DB"/>
</svg>
