<svg width="18" height="19" viewBox="0 0 18 19" fill="none" xmlns="http://www.w3.org/2000/svg">
<path d="M6.08188 17.2089V14.406C6.08188 13.6905 6.66616 13.1104 7.3869 13.1104H10.0216C10.3677 13.1104 10.6996 13.2469 10.9443 13.4899C11.1891 13.7329 11.3266 14.0624 11.3266 14.406V17.2089C11.3244 17.5064 11.4419 17.7924 11.653 18.0035C11.8641 18.2146 12.1514 18.3333 12.451 18.3333H14.2485C15.088 18.3355 15.8939 18.0059 16.4882 17.4174C17.0826 16.8289 17.4167 16.0297 17.4167 15.1963V7.21129C17.4166 6.53809 17.1161 5.89952 16.5959 5.46761L10.4812 0.619547C9.41752 -0.230485 7.89352 -0.20304 6.86161 0.684731L0.886428 5.46761C0.341679 5.88679 0.0160896 6.52725 0 7.21129V15.1882C0 16.9252 1.41843 18.3333 3.16816 18.3333H4.9246C5.54696 18.3333 6.05275 17.8349 6.05726 17.217L6.08188 17.2089Z" fill="#D1D5DB"/>
</svg>
