<?xml version="1.0" encoding="UTF-8"?>
<svg version="1.1" xmlns="http://www.w3.org/2000/svg" width="128" height="128">
<path d="M0 0 C3.65211234 2.00974229 6.99131133 4.50821813 10.24609375 7.10546875 C12.9831177 9.23864089 14.49248592 9.43120611 17.875 9.25 C26.48737748 9.20859434 33.23666998 11.83399687 39.83203125 17.34375 C46.73562974 24.2077485 50.29788829 31.70730609 50.375 41.4375 C50.37399494 50.80365103 48.03373665 57.89582468 41.54296875 64.88671875 C35.6140925 70.375 35.6140925 70.375 32.875 70.375 C32.88388245 70.96302399 32.89276489 71.55104797 32.9019165 72.15689087 C32.99055783 78.28890237 33.05080383 84.42073122 33.09472656 90.55322266 C33.11481517 92.84040726 33.14209128 95.12754068 33.17675781 97.41455078 C33.22539558 100.70618334 33.24799679 103.99713557 33.265625 107.2890625 C33.28627014 108.30803619 33.30691528 109.32700989 33.32818604 110.37686157 C33.33007192 116.37265247 32.91373011 119.83393574 28.875 124.375 C25.22219444 126.81020371 22.49408075 126.67077615 18.27001953 126.66552734 C17.49732727 126.67224457 16.72463501 126.67896179 15.92852783 126.68588257 C13.37155748 126.70489609 10.81484916 126.70878849 8.2578125 126.7109375 C6.48045747 126.71736334 4.70310352 126.72409154 2.92575073 126.73110962 C-0.80164034 126.74309093 -4.52893868 126.74678959 -8.25634766 126.74560547 C-13.03036568 126.74540228 -17.80378838 126.77269985 -22.57766533 126.80714989 C-26.24942755 126.82939901 -29.92104608 126.83344362 -33.5928688 126.83238602 C-35.35272396 126.83474515 -37.11258289 126.84358627 -38.87237167 126.85905075 C-41.33574719 126.87867009 -43.79783374 126.87288931 -46.26123047 126.86083984 C-46.98660004 126.87207886 -47.7119696 126.88331787 -48.45932007 126.89489746 C-51.96464594 126.85137608 -53.98995659 126.45887503 -56.9914856 124.59463501 C-60.45880633 120.98735377 -61.37821922 118.48665172 -61.35205078 113.51464844 C-61.35189972 112.55395447 -61.35174866 111.5932605 -61.35159302 110.60345459 C-61.34127045 109.57415833 -61.33094788 108.54486206 -61.3203125 107.484375 C-61.3174826 106.42462463 -61.31465271 105.36487427 -61.31173706 104.27301025 C-61.30054734 100.89022503 -61.2754447 97.50770513 -61.25 94.125 C-61.23996865 91.83073299 -61.23084307 89.53646183 -61.22265625 87.2421875 C-61.20061196 81.61970123 -61.16714627 75.99736957 -61.125 70.375 C-61.91197266 70.07263428 -62.69894531 69.77026855 -63.50976562 69.45874023 C-69.39011303 67.02195325 -73.11011595 61.99494708 -76.0625 56.5 C-79.53899941 48.07528311 -79.70593752 38.54322848 -77.05078125 29.86328125 C-72.68601863 20.33255302 -65.80844296 14.21462226 -56.125 10.375 C-53.55095566 9.56214389 -51.53236252 9.34640092 -48.84375 9.53515625 C-43.79821553 9.93283814 -43.79821553 9.93283814 -39.203125 8.18359375 C-38.0617672 7.13909429 -36.94426815 6.06795125 -35.8515625 4.97265625 C-27.21507745 -3.01902336 -10.66304438 -4.52428468 0 0 Z M-36.125 14.375 C-40.91517866 20.59864858 -42.54911582 27.80306869 -44.125 35.375 C-45.445 35.375 -46.765 35.375 -48.125 35.375 C-48.51825819 28.39830843 -47.75596039 22.85843811 -45.125 16.375 C-52.32493748 16.70833044 -58.44263861 17.94257264 -63.8515625 22.984375 C-69.61024476 29.3955188 -72.29125339 35.71703519 -72.125 44.375 C-71.09722927 52.2706975 -67.29558725 58.36072245 -61.125 63.375 C-59.145 64.035 -57.165 64.695 -55.125 65.375 C-54.63 80.72 -54.63 80.72 -54.125 96.375 C-27.725 96.375 -1.325 96.375 25.875 96.375 C26.205 86.145 26.535 75.915 26.875 65.375 C28.855 64.715 30.835 64.055 32.875 63.375 C39.06067638 58.34846088 42.81736905 52.27684042 43.875 44.375 C44.26278706 36.24398092 41.69530023 29.63217154 36.26953125 23.5859375 C31.35115269 19.01645993 26.0890374 16.54718058 19.375 16.1875 C18.1375 16.2803125 18.1375 16.2803125 16.875 16.375 C17.0915625 16.90867187 17.308125 17.44234375 17.53125 17.9921875 C19.75398862 23.94007139 20.23117135 29.05625637 19.875 35.375 C18.555 35.375 17.235 35.375 15.875 35.375 C15.66746094 34.39660156 15.45992188 33.41820313 15.24609375 32.41015625 C12.93143753 22.26864795 9.88432294 14.53680758 0.9375 8.4375 C-11.9190715 1.22588349 -25.96183795 4.05083737 -36.125 14.375 Z M-54.125 103.375 C-54.125 107.995 -54.125 112.615 -54.125 117.375 C-49.64603622 120.73422284 -48.5126993 120.75296263 -43.125 120.76318359 C-42.08037598 120.77106903 -42.08037598 120.77106903 -41.01464844 120.77911377 C-38.71786926 120.79229294 -36.42178594 120.78358358 -34.125 120.7734375 C-32.52604032 120.77545885 -30.92708153 120.77837079 -29.328125 120.78213501 C-25.97907727 120.78655552 -22.63026978 120.78013624 -19.28125 120.76611328 C-14.99036536 120.74902137 -10.70004368 120.75886404 -6.40917969 120.77683067 C-3.10802984 120.78767599 0.19298674 120.78421878 3.49414062 120.7764473 C5.07617255 120.77444735 6.65821662 120.77689737 8.24023438 120.78388596 C10.45214851 120.79151297 12.66315351 120.77987991 14.875 120.76318359 C16.133125 120.76079681 17.39125 120.75841003 18.6875 120.75595093 C22.27442034 120.59712712 22.27442034 120.59712712 25.875 117.375 C25.875 112.755 25.875 108.135 25.875 103.375 C-0.525 103.375 -26.925 103.375 -54.125 103.375 Z " fill="#FB9400" transform="translate(78.125,1.625)"/>
<path d="M0 0 C1.65 0.33 3.3 0.66 5 1 C5.98872336 8.25063794 2.73924482 13.91943904 -1 20 C-3.03125 22.37890625 -3.03125 22.37890625 -5 24 C-7.75 23.75 -7.75 23.75 -10 23 C-10.31454933 18.91085866 -9.69165394 17.01359685 -7.25 13.75 C-4.1564982 9.38830907 -1.98927088 4.949774 0 0 Z " fill="#FB9500" transform="translate(94,58)"/>
<path d="M0 0 C2.40234375 0.078125 2.40234375 0.078125 5 1 C6.44140625 3.546875 6.44140625 3.546875 7.5625 6.75 C9.16618767 11.25586293 10.98704467 14.3048661 14 18 C14.25 20.8125 14.25 20.8125 14 23 C12.35 23.33 10.7 23.66 9 24 C3.96152398 18.5296546 -1.26355071 11.67526521 -1.375 3.9375 C-1 1 -1 1 0 0 Z " fill="#FB9400" transform="translate(30,58)"/>
<path d="M0 0 C1.65 0.33 3.3 0.66 5 1 C5 8.26 5 15.52 5 23 C3.35 23.33 1.7 23.66 0 24 C-1.65394117 22.34605883 -1.12999683 20.39684587 -1.1328125 18.125 C-1.13410156 17.14015625 -1.13539062 16.1553125 -1.13671875 15.140625 C-1.13285156 14.10421875 -1.12898438 13.0678125 -1.125 12 C-1.13080078 10.44539063 -1.13080078 10.44539063 -1.13671875 8.859375 C-1.13542969 7.87453125 -1.13414063 6.8896875 -1.1328125 5.875 C-1.13168457 4.96492188 -1.13055664 4.05484375 -1.12939453 3.1171875 C-1 1 -1 1 0 0 Z " fill="#FB9300" transform="translate(62,58)"/>
</svg>
