<svg width="22" height="22" viewBox="0 0 22 22" fill="none" xmlns="http://www.w3.org/2000/svg">
<path fill-rule="evenodd" clip-rule="evenodd" d="M1.83334 9.78081C1.83334 5.39156 5.35366 1.83337 9.69618 1.83337C11.7815 1.83337 13.7815 2.67069 15.256 4.16112C16.7306 5.65156 17.559 7.67302 17.559 9.78081C17.559 14.1701 14.0387 17.7282 9.69618 17.7282C5.35366 17.7282 1.83334 14.1701 1.83334 9.78081ZM17.4289 16.1831L19.7707 18.0734H19.8113C20.2851 18.5523 20.2851 19.3287 19.8113 19.8076C19.3376 20.2864 18.5694 20.2864 18.0957 19.8076L16.1523 17.5803C15.9686 17.3953 15.8653 17.1439 15.8653 16.8817C15.8653 16.6196 15.9686 16.3682 16.1523 16.1831C16.5066 15.8312 17.0746 15.8312 17.4289 16.1831Z" fill="#D1D5DB"/>
</svg>
